<svg width="72" height="72" viewBox="0 0 72 72" fill="none" xmlns="http://www.w3.org/2000/svg">
<path fill-rule="evenodd" clip-rule="evenodd" d="M44.0117 50.532C46.0204 51.4445 48.2517 51.9527 50.6017 51.9527C59.4106 51.9527 66.5517 44.8117 66.5517 36.0027C66.5517 27.1938 59.4106 20.0527 50.6017 20.0527C48.2529 20.0527 46.0226 20.5604 44.0148 21.4721C48.1924 24.9296 50.854 30.1544 50.854 36.0008C50.854 41.8486 48.1911 47.0745 44.0117 50.532Z" fill="#789FFA"/>
<path fill-rule="evenodd" clip-rule="evenodd" d="M22.2032 23.4172C18.46 26.336 16.0527 30.8883 16.0527 36.0027C16.0527 41.1161 18.4589 45.6674 22.2007 48.5863C25.9439 45.6675 28.3512 41.1153 28.3512 36.0008C28.3512 30.8875 25.945 26.3361 22.2032 23.4172ZM24.7752 21.7805C28.7432 25.2362 31.2512 30.3256 31.2512 36.0008C31.2512 41.6773 28.742 46.7678 24.7723 50.2236C26.9427 51.3293 29.3999 51.9527 32.0027 51.9527C40.8117 51.9527 47.9527 44.8117 47.9527 36.0027C47.9527 27.1938 40.8117 20.0527 32.0027 20.0527C29.4011 20.0527 26.9449 20.6756 24.7752 21.7805Z" fill="#B0C8FF"/>
<path fill-rule="evenodd" clip-rule="evenodd" d="M4.75 49.9995C9.66991 47.2704 12.9999 42.0233 12.9999 35.9984C12.9999 29.9753 9.67182 24.7295 4.75425 21.9997C7.02456 20.7572 9.63014 20.0508 12.4007 20.0508C21.2097 20.0508 28.3507 27.1918 28.3507 36.0008C28.3507 44.8097 21.2097 51.9508 12.4007 51.9508C9.62841 51.9508 7.02131 51.2435 4.75 49.9995Z" fill="#D1DFFF"/>
</svg>
